<svg id="visual" viewBox="0 0 900 450" width="900" height="450" xmlns="http://www.w3.org/2000/svg" xmlns:xlink="http://www.w3.org/1999/xlink" version="1.1"><rect x="0" y="0" width="900" height="450" fill="#0066ff"></rect><path d="M0 219L16.7 214.7C33.3 210.3 66.7 201.7 100 184.2C133.3 166.7 166.7 140.3 200 148.2C233.3 156 266.7 198 300 213.3C333.3 228.7 366.7 217.3 400 201.8C433.3 186.3 466.7 166.7 500 156.2C533.3 145.7 566.7 144.3 600 146.8C633.3 149.3 666.7 155.7 700 170C733.3 184.3 766.7 206.7 800 209.2C833.3 211.7 866.7 194.3 883.3 185.7L900 177L900 451L883.3 451C866.7 451 833.3 451 800 451C766.7 451 733.3 451 700 451C666.7 451 633.3 451 600 451C566.7 451 533.3 451 500 451C466.7 451 433.3 451 400 451C366.7 451 333.3 451 300 451C266.7 451 233.3 451 200 451C166.7 451 133.3 451 100 451C66.7 451 33.3 451 16.7 451L0 451Z" fill="#e1ca1c"></path><path d="M0 273L16.7 270.2C33.3 267.3 66.7 261.7 100 242.2C133.3 222.7 166.7 189.3 200 178.5C233.3 167.7 266.7 179.3 300 198.5C333.3 217.7 366.7 244.3 400 252.3C433.3 260.3 466.7 249.7 500 253.2C533.3 256.7 566.7 274.3 600 271.5C633.3 268.7 666.7 245.3 700 228.2C733.3 211 766.7 200 800 204.3C833.3 208.7 866.7 228.3 883.3 238.2L900 248L900 451L883.3 451C866.7 451 833.3 451 800 451C766.7 451 733.3 451 700 451C666.7 451 633.3 451 600 451C566.7 451 533.3 451 500 451C466.7 451 433.3 451 400 451C366.7 451 333.3 451 300 451C266.7 451 233.3 451 200 451C166.7 451 133.3 451 100 451C66.7 451 33.3 451 16.7 451L0 451Z" fill="#e1ba17"></path><path d="M0 215L16.7 221C33.3 227 66.7 239 100 248.5C133.3 258 166.7 265 200 276.3C233.3 287.7 266.7 303.3 300 294.7C333.3 286 366.7 253 400 253.2C433.3 253.3 466.7 286.7 500 283.5C533.3 280.3 566.7 240.7 600 224.3C633.3 208 666.7 215 700 226.8C733.3 238.7 766.7 255.3 800 253.5C833.3 251.7 866.7 231.3 883.3 221.2L900 211L900 451L883.3 451C866.7 451 833.3 451 800 451C766.7 451 733.3 451 700 451C666.7 451 633.3 451 600 451C566.7 451 533.3 451 500 451C466.7 451 433.3 451 400 451C366.7 451 333.3 451 300 451C266.7 451 233.3 451 200 451C166.7 451 133.3 451 100 451C66.7 451 33.3 451 16.7 451L0 451Z" fill="#dfaa17"></path><path d="M0 303L16.7 298.3C33.3 293.7 66.7 284.3 100 285.5C133.3 286.7 166.7 298.3 200 293C233.3 287.7 266.7 265.3 300 258.3C333.3 251.3 366.7 259.7 400 273C433.3 286.3 466.7 304.7 500 301.3C533.3 298 566.7 273 600 270.2C633.3 267.3 666.7 286.7 700 299.5C733.3 312.3 766.7 318.7 800 308.8C833.3 299 866.7 273 883.3 260L900 247L900 451L883.3 451C866.7 451 833.3 451 800 451C766.7 451 733.3 451 700 451C666.7 451 633.3 451 600 451C566.7 451 533.3 451 500 451C466.7 451 433.3 451 400 451C366.7 451 333.3 451 300 451C266.7 451 233.3 451 200 451C166.7 451 133.3 451 100 451C66.7 451 33.3 451 16.7 451L0 451Z" fill="#db9a19"></path><path d="M0 291L16.7 295.8C33.3 300.7 66.7 310.3 100 314.7C133.3 319 166.7 318 200 315.8C233.3 313.7 266.7 310.3 300 309.5C333.3 308.7 366.7 310.3 400 319.7C433.3 329 466.7 346 500 346.7C533.3 347.3 566.7 331.7 600 318.5C633.3 305.3 666.7 294.7 700 288.5C733.3 282.3 766.7 280.7 800 284.2C833.3 287.7 866.7 296.3 883.3 300.7L900 305L900 451L883.3 451C866.7 451 833.3 451 800 451C766.7 451 733.3 451 700 451C666.7 451 633.3 451 600 451C566.7 451 533.3 451 500 451C466.7 451 433.3 451 400 451C366.7 451 333.3 451 300 451C266.7 451 233.3 451 200 451C166.7 451 133.3 451 100 451C66.7 451 33.3 451 16.7 451L0 451Z" fill="#d68b1d"></path><path d="M0 400L16.7 388.7C33.3 377.3 66.7 354.7 100 345C133.3 335.3 166.7 338.7 200 341.3C233.3 344 266.7 346 300 354.2C333.3 362.3 366.7 376.7 400 375.2C433.3 373.7 466.7 356.3 500 345.3C533.3 334.3 566.7 329.7 600 338.2C633.3 346.7 666.7 368.3 700 380.2C733.3 392 766.7 394 800 388C833.3 382 866.7 368 883.3 361L900 354L900 451L883.3 451C866.7 451 833.3 451 800 451C766.7 451 733.3 451 700 451C666.7 451 633.3 451 600 451C566.7 451 533.3 451 500 451C466.7 451 433.3 451 400 451C366.7 451 333.3 451 300 451C266.7 451 233.3 451 200 451C166.7 451 133.3 451 100 451C66.7 451 33.3 451 16.7 451L0 451Z" fill="#cf7c21"></path><path d="M0 421L16.7 421.5C33.3 422 66.7 423 100 419.5C133.3 416 166.7 408 200 404.8C233.3 401.7 266.7 403.3 300 404.3C333.3 405.3 366.7 405.7 400 408C433.3 410.3 466.7 414.7 500 411.3C533.3 408 566.7 397 600 390.8C633.3 384.7 666.7 383.3 700 381.5C733.3 379.7 766.7 377.3 800 381.8C833.3 386.3 866.7 397.7 883.3 403.3L900 409L900 451L883.3 451C866.7 451 833.3 451 800 451C766.7 451 733.3 451 700 451C666.7 451 633.3 451 600 451C566.7 451 533.3 451 500 451C466.7 451 433.3 451 400 451C366.7 451 333.3 451 300 451C266.7 451 233.3 451 200 451C166.7 451 133.3 451 100 451C66.7 451 33.3 451 16.7 451L0 451Z" fill="#c76e24"></path></svg>