<svg id="visual" viewBox="0 0 900 600" width="900" height="600" xmlns="http://www.w3.org/2000/svg" xmlns:xlink="http://www.w3.org/1999/xlink" version="1.1"><rect x="0" y="0" width="900" height="600" fill="#002233"></rect><path d="M0 437L21.5 432.7C43 428.3 86 419.7 128.8 412C171.7 404.3 214.3 397.7 257.2 399.7C300 401.7 343 412.3 385.8 420.5C428.7 428.7 471.3 434.3 514.2 436.5C557 438.7 600 437.3 642.8 444C685.7 450.7 728.3 465.3 771.2 461.3C814 457.3 857 434.7 878.5 423.3L900 412L900 601L878.5 601C857 601 814 601 771.2 601C728.3 601 685.7 601 642.8 601C600 601 557 601 514.2 601C471.3 601 428.7 601 385.8 601C343 601 300 601 257.2 601C214.3 601 171.7 601 128.8 601C86 601 43 601 21.5 601L0 601Z" fill="#0066FF" stroke-linecap="round" stroke-linejoin="miter"></path></svg>